<svg xmlns="http://www.w3.org/2000/svg" >
<symbol 
    id="icon-achieve"
  viewBox="0 0 24 24"
>
   <path d="M21.25 18.47L19.6 18.86C19.23 18.95 18.94 19.23 18.86 19.6L18.51 21.07C18.32 21.87 17.3 22.12 16.77 21.49L13.78 18.05C13.7243 17.986 13.6859 17.9088 13.6684 17.8257C13.6508 17.7427 13.6548 17.6566 13.6798 17.5755C13.7048 17.4944 13.7501 17.4211 13.8114 17.3624C13.8727 17.3036 13.9479 17.2615 14.03 17.24C15.8051 16.8085 17.3937 15.816 18.56 14.41C18.75 14.18 19.09 14.15 19.3 14.36L21.52 16.58C22.28 17.34 22.01 18.29 21.25 18.47ZM2.69998 18.47L4.34998 18.86C4.71998 18.95 5.00998 19.23 5.08998 19.6L5.43998 21.07C5.62998 21.87 6.64998 22.12 7.17998 21.49L10.17 18.05C10.41 17.77 10.28 17.33 9.91998 17.24C8.14489 16.8085 6.55628 15.816 5.38998 14.41C5.3468 14.355 5.29254 14.3097 5.23071 14.277C5.16889 14.2443 5.10088 14.225 5.03111 14.2203C4.96134 14.2155 4.89135 14.2255 4.82569 14.2496C4.76003 14.2737 4.70017 14.3113 4.64998 14.36L2.42998 16.58C1.66998 17.34 1.93998 18.29 2.69998 18.47ZM12 2C8.12998 2 4.99998 5.13 4.99998 9C4.99998 10.45 5.42998 11.78 6.16998 12.89C6.71223 13.6987 7.41757 14.3852 8.24075 14.9053C9.06393 15.4254 9.98674 15.7676 10.95 15.91C11.29 15.97 11.64 16 12 16C12.36 16 12.71 15.97 13.05 15.91C15.04 15.62 16.75 14.49 17.83 12.89C18.5977 11.7383 19.005 10.3841 19 9C19 5.13 15.87 2 12 2ZM15.06 8.78L14.23 9.61C14.09 9.75 14.01 10.02 14.06 10.22L14.3 11.25C14.49 12.06 14.06 12.38 13.34 11.95L12.34 11.36C12.2384 11.3058 12.1251 11.2775 12.01 11.2775C11.8949 11.2775 11.7815 11.3058 11.68 11.36L10.68 11.95C9.95998 12.37 9.52998 12.06 9.71998 11.25L9.95998 10.22C9.99998 10.03 9.92998 9.75 9.78998 9.61L8.93998 8.78C8.44998 8.29 8.60998 7.8 9.28998 7.69L10.36 7.51C10.54 7.48 10.75 7.32 10.83 7.16L11.42 5.98C11.74 5.34 12.26 5.34 12.58 5.98L13.17 7.16C13.25 7.32 13.46 7.48 13.65 7.51L14.72 7.69C15.39 7.8 15.55 8.29 15.06 8.78Z" />

</symbol>
</svg>
