<svg xmlns="http://www.w3.org/2000/svg" >
<symbol 
    id="icon-block"
  viewBox="0 0 24 24"
>
    <path d="M12 12C14.7614 12 17 9.76142 17 7C17 4.23858 14.7614 2 12 2C9.23858 2 7 4.23858 7 7C7 9.76142 9.23858 12 12 12Z" stroke-width="1.5" stroke-linecap="round" stroke-linejoin="round"/>
    <path d="M20 21C20 17.13 16.1903 14 11.5 14C6.80966 14 3 17.13 3 21" stroke-width="1.5" stroke-linecap="round" stroke-linejoin="round"/>
    <path d="M13.75 21.75C13.57 21.93 13.3731 22.0819 13.1594 22.2056C12.8838 22.38 12.5744 22.5094 12.265 22.5825C11.2244 22.8469 10.0713 22.5712 9.25 21.75C8.67063 21.1706 8.36689 20.4281 8.33314 19.6744C8.31064 19.3594 8.33875 19.0387 8.4175 18.735C8.54687 18.1894 8.82813 17.6719 9.25 17.25C9.8575 16.6425 10.6562 16.3275 11.455 16.3163C12.2875 16.305 13.12 16.62 13.75 17.25C14.4137 17.9137 14.7287 18.8025 14.6725 19.6688C14.6331 20.4281 14.3237 21.1762 13.75 21.75Z" stroke-width="1.5" stroke-miterlimit="10" stroke-linecap="round" stroke-linejoin="round"/>
    <path d="M13.5455 21.5455L9.45459 17.4546" stroke-width="1.5" stroke-miterlimit="10" stroke-linecap="round" stroke-linejoin="round"/>

</symbol>
</svg>




