<svg xmlns="http://www.w3.org/2000/svg" >
<symbol 
    id="icon-chat"
  viewBox="0 0 24 24"
>
    <path d="M22.1275 12.86C22.1275 15.15 20.9475 17.18 19.1275 18.46L17.7875 21.41C17.4775 22.08 16.5775 22.21 16.1075 21.64L14.6275 19.86C12.7675 19.86 11.0575 19.23 9.75754 18.18L10.3575 17.47C14.9775 17.12 18.6275 13.46 18.6275 8.99999C18.6275 8.23999 18.5175 7.48999 18.3175 6.76999C20.5875 7.96999 22.1275 10.25 22.1275 12.86Z" fill="#DEC8C8"/>
    <path d="M16.4285 6.07C15.2585 3.67 12.6485 2 9.62854 2C5.48854 2 2.12854 5.13 2.12854 9C2.12854 11.29 3.30854 13.32 5.12854 14.6L6.46854 17.55C6.77854 18.22 7.67854 18.34 8.14854 17.78L8.69854 17.12L9.62854 16C13.7685 16 17.1285 12.87 17.1285 9C17.1285 7.95 16.8785 6.96 16.4285 6.07ZM12.1285 9.75H7.12854C6.71854 9.75 6.37854 9.41 6.37854 9C6.37854 8.59 6.71854 8.25 7.12854 8.25H12.1285C12.5385 8.25 12.8785 8.59 12.8785 9C12.8785 9.41 12.5385 9.75 12.1285 9.75Z" fill="#DEC8C8"/>

</symbol>
</svg>

