<svg xmlns="http://www.w3.org/2000/svg" >
<symbol 
    id="icon-friend"
  viewBox="0 0 24 24"
>
    <path d="M18.1285 3H6.12854C3.91854 3 2.12854 4.78 2.12854 6.97V17.03C2.12854 19.22 3.91854 21 6.12854 21H18.1285C20.3385 21 22.1285 19.22 22.1285 17.03V6.97C22.1285 4.78 20.3385 3 18.1285 3ZM8.62854 7.17C9.89854 7.17 10.9385 8.21 10.9385 9.48C10.9385 10.75 9.89854 11.79 8.62854 11.79C7.35854 11.79 6.31854 10.75 6.31854 9.48C6.31854 8.21 7.35854 7.17 8.62854 7.17ZM12.4985 16.66C12.4085 16.76 12.2685 16.82 12.1285 16.82H5.12854C4.98854 16.82 4.84854 16.76 4.75854 16.66C4.71276 16.6084 4.67769 16.5483 4.65537 16.4831C4.63305 16.4178 4.62393 16.3488 4.62854 16.28C4.71213 15.4644 5.07559 14.7029 5.65714 14.125C6.23869 13.5471 7.00244 13.1885 7.81854 13.11C8.35404 13.06 8.89304 13.06 9.42854 13.11C11.1085 13.27 12.4585 14.6 12.6185 16.28C12.6385 16.42 12.5885 16.56 12.4985 16.66ZM19.1285 16.75H17.1285C16.7185 16.75 16.3785 16.41 16.3785 16C16.3785 15.59 16.7185 15.25 17.1285 15.25H19.1285C19.5385 15.25 19.8785 15.59 19.8785 16C19.8785 16.41 19.5385 16.75 19.1285 16.75ZM19.1285 12.75H15.1285C14.7185 12.75 14.3785 12.41 14.3785 12C14.3785 11.59 14.7185 11.25 15.1285 11.25H19.1285C19.5385 11.25 19.8785 11.59 19.8785 12C19.8785 12.41 19.5385 12.75 19.1285 12.75ZM19.1285 8.75H14.1285C13.7185 8.75 13.3785 8.41 13.3785 8C13.3785 7.59 13.7185 7.25 14.1285 7.25H19.1285C19.5385 7.25 19.8785 7.59 19.8785 8C19.8785 8.41 19.5385 8.75 19.1285 8.75Z" fill="#DEC8C8"/>

</symbol>
</svg>
