<svg xmlns="http://www.w3.org/2000/svg" >
<symbol 
    id="icon-history"
  viewBox="0 0 24 24"
>
    <path d="M11.67 2.648C6.89 2.648 3 6.538 3 11.318C3 16.098 6.89 19.998 11.67 19.998C16.45 19.998 20.34 16.108 20.34 11.328C20.34 6.548 16.45 2.648 11.67 2.648ZM12.42 10.998C12.42 11.408 12.08 11.748 11.67 11.748C11.26 11.748 10.92 11.408 10.92 10.998V5.998C10.92 5.588 11.26 5.248 11.67 5.248C12.08 5.248 12.42 5.588 12.42 5.998V10.998ZM14.56 1.45H8.78C8.38 1.45 8.06 1.13 8.06 0.73C8.06 0.33 8.38 0 8.78 0H14.56C14.96 0 15.28 0.32 15.28 0.72C15.28 1.12 14.96 1.45 14.56 1.45Z" />

</symbol>
</svg>

