<svg xmlns="http://www.w3.org/2000/svg" >
<symbol 
    id="icon-home"
  viewBox="0 0 24 24"
>
  <path
    d="M20.8632 8.18626L13.9332 2.64626C12.8632 1.78626 11.1332 1.78626 10.0732 2.63626L3.14319 8.18626C2.36319 8.80626 1.86319 10.1163 2.03319 11.0963L3.36319 19.0563C3.60319 20.4763 4.96319 21.6263 6.40319 21.6263H17.6032C19.0332 21.6263 20.4032 20.4663 20.6432 19.0563L21.9732 11.0963C22.1332 10.1163 21.6332 8.80626 20.8632 8.18626ZM12.0032 15.3163C11.3402 15.3163 10.7043 15.0529 10.2354 14.584C9.76659 14.1152 9.50319 13.4793 9.50319 12.8163C9.50319 12.1532 9.76659 11.5173 10.2354 11.0485C10.7043 10.5796 11.3402 10.3163 12.0032 10.3163C12.6662 10.3163 13.3021 10.5796 13.771 11.0485C14.2398 11.5173 14.5032 12.1532 14.5032 12.8163C14.5032 13.4793 14.2398 14.1152 13.771 14.584C13.3021 15.0529 12.6662 15.3163 12.0032 15.3163Z"
  />
</symbol>
</svg>

