<svg xmlns="http://www.w3.org/2000/svg">
<symbol
    id="icon-logo"
  viewBox="0 0 24 24"
>
  <g clip-path="url(#clip0_418_2)">
    <path d="M17.9598 10.5C18.2187 10.1071 18.1897 9.52902 17.8728 8.76563C17.5558 8.00223 17.0134 7.36607 16.2455 6.85714C15.7277 6.50893 15.1674 6.27009 14.5647 6.14063C13.962 6.01116 13.4353 5.99107 12.9844 6.08036C12.5335 6.16964 12.2277 6.33482 12.067 6.57589C11.9598 6.78125 11.9397 6.90625 12.0067 6.95089C12.0736 6.99554 12.2634 7.04018 12.5759 7.08482C12.7812 7.11161 12.9531 7.13393 13.0915 7.15179C13.2299 7.16964 13.4286 7.21205 13.6875 7.27902C13.9464 7.34598 14.1964 7.42411 14.4375 7.51339C14.7589 7.62946 15.0603 7.77009 15.3415 7.93527C15.6228 8.10045 15.8594 8.26563 16.0513 8.4308C16.2433 8.59598 16.4219 8.76786 16.587 8.94643C16.7522 9.125 16.8884 9.29464 16.9955 9.45536C17.1027 9.61607 17.2009 9.77009 17.2902 9.91741C17.3795 10.0647 17.4531 10.192 17.5111 10.2991C17.5692 10.4063 17.6228 10.4888 17.6719 10.5469C17.721 10.6049 17.7678 10.6317 17.8125 10.6272C17.8571 10.6228 17.9062 10.5804 17.9598 10.5ZM22.8214 18.1875C22.3571 19.3214 21.6942 20.3036 20.8326 21.1339C19.971 21.9643 19.0134 22.596 17.9598 23.029C16.9062 23.4621 15.7768 23.7321 14.5714 23.8393C13.3661 23.9464 12.1786 23.8862 11.0089 23.6585C9.83927 23.4308 8.71874 23.0246 7.64731 22.4397C6.57588 21.8549 5.63838 21.1339 4.83481 20.2768C4.03124 19.4196 3.39954 18.3683 2.93972 17.1228C2.4799 15.8772 2.27231 14.5223 2.31695 13.058C2.32588 12.692 2.36383 12.3147 2.43079 11.9263C2.49776 11.5379 2.55356 11.2522 2.5982 11.0692C2.64284 10.8862 2.74999 10.5268 2.91963 9.99107C3.08927 9.45536 3.19195 9.12946 3.22767 9.01339C2.77231 10.8705 2.77677 12.6429 3.24106 14.3304C3.70534 16.0179 4.47767 17.4375 5.55802 18.5893C6.63838 19.7411 7.93749 20.6607 9.45534 21.3482C10.9732 22.0357 12.5178 22.4063 14.0893 22.4598C15.6607 22.5134 17.2187 22.1808 18.7634 21.4621C20.308 20.7433 21.5982 19.6518 22.6339 18.1875C22.8125 17.9464 22.8928 17.8839 22.875 18C22.875 18.0357 22.8571 18.0982 22.8214 18.1875ZM19.6205 12.1741C19.6205 13.1027 19.4397 13.9911 19.0781 14.8393C18.7165 15.6875 18.2321 16.4196 17.625 17.0357C17.0178 17.6518 16.2946 18.1406 15.4553 18.5022C14.6161 18.8638 13.7321 19.0446 12.8036 19.0446C11.875 19.0446 10.9911 18.8638 10.1518 18.5022C9.31249 18.1406 8.58927 17.6518 7.98213 17.0357C7.37499 16.4196 6.89061 15.6875 6.52901 14.8393C6.1674 13.9911 5.98659 13.1027 5.98659 12.1741C5.98659 11.2455 6.1674 10.3571 6.52901 9.50893C6.89061 8.66071 7.37499 7.92857 7.98213 7.3125C8.58927 6.69643 9.31249 6.20759 10.1518 5.84598C10.9911 5.48438 11.875 5.30357 12.8036 5.30357C13.7321 5.30357 14.6161 5.48438 15.4553 5.84598C16.2946 6.20759 17.0178 6.69643 17.625 7.3125C18.2321 7.92857 18.7165 8.66071 19.0781 9.50893C19.4397 10.3571 19.6205 11.2455 19.6205 12.1741ZM23.4643 8.31696C22.8839 7.00446 22.0781 5.88393 21.0469 4.95536C20.0156 4.02679 18.8861 3.34152 17.6585 2.89955C16.4308 2.45759 15.1272 2.21875 13.7478 2.18304C12.3683 2.14732 11.0245 2.31027 9.7165 2.67188C8.40847 3.03348 7.17856 3.60938 6.02677 4.39955C4.87499 5.18973 3.89284 6.13393 3.08034 7.23214C2.26784 8.33036 1.68302 9.65625 1.32588 11.2098C0.968737 12.7634 0.924094 14.4286 1.19195 16.2054C0.754451 14.7679 0.524541 13.3772 0.502219 12.0335C0.479898 10.6897 0.63838 9.47321 0.977666 8.38393C1.31695 7.29464 1.80356 6.28125 2.43749 5.34375C3.07142 4.40625 3.81026 3.60045 4.65401 2.92634C5.49776 2.25223 6.42186 1.68973 7.42633 1.23884C8.43079 0.787946 9.4665 0.470982 10.5335 0.287946C11.6004 0.104911 12.683 0.0647321 13.7812 0.167411C14.8795 0.270089 15.933 0.511161 16.942 0.890625C17.9509 1.27009 18.9152 1.82589 19.8348 2.55804C20.7545 3.29018 21.5491 4.16964 22.2187 5.19643C22.5134 5.64286 22.7902 6.18304 23.0491 6.81696C23.308 7.45089 23.4464 7.95089 23.4643 8.31696ZM22.6339 12.8973C22.7411 10.7188 22.1317 8.86161 20.8058 7.32589C19.4799 5.79018 17.7098 4.71875 15.4955 4.11161C15.4241 4.11161 15.3795 4.08929 15.3616 4.04464C15.3437 4 15.4509 3.96429 15.683 3.9375C16.7991 3.97321 17.8259 4.19643 18.7634 4.60714C19.7009 5.01786 20.4732 5.55357 21.0803 6.21429C21.6875 6.875 22.2053 7.62723 22.6339 8.47098C23.0625 9.31473 23.3236 10.2031 23.4174 11.1362C23.5111 12.0692 23.5067 12.9978 23.404 13.9219C23.3013 14.846 23.0268 15.7277 22.5803 16.567C22.1339 17.4063 21.587 18.1518 20.9397 18.8036C20.2924 19.4554 19.4665 19.9799 18.462 20.3772C17.4576 20.7746 16.3482 20.9821 15.1339 21C16.0982 20.7321 16.9978 20.375 17.8326 19.9286C18.6674 19.4821 19.4442 18.933 20.1629 18.2813C20.8817 17.6295 21.4598 16.8415 21.8973 15.9174C22.3348 14.9933 22.5803 13.9866 22.6339 12.8973Z" fill="#DEC8C8"/>
    </g>
    <defs>
    <clipPath id="clip0_418_2">
    <rect width="24" height="24" fill="white"/>
    </clipPath>
    </defs>
</symbol>
</svg>
