<svg xmlns="http://www.w3.org/2000/svg" >
<symbol 
    id="icon-menu"
  viewBox="0 0 24 24"
>
    <path d="M17.028 0H6.972C2.604 0 0 2.604 0 6.972V17.016C0 21.396 2.604 24 6.972 24H17.016C21.384 24 23.988 21.396 23.988 17.028V6.972C24 2.604 21.396 0 17.028 0ZM18 18.3H6C5.508 18.3 5.1 17.892 5.1 17.4C5.1 16.908 5.508 16.5 6 16.5H18C18.492 16.5 18.9 16.908 18.9 17.4C18.9 17.892 18.492 18.3 18 18.3ZM18 12.9H6C5.508 12.9 5.1 12.492 5.1 12C5.1 11.508 5.508 11.1 6 11.1H18C18.492 11.1 18.9 11.508 18.9 12C18.9 12.492 18.492 12.9 18 12.9ZM18 7.5H6C5.508 7.5 5.1 7.092 5.1 6.6C5.1 6.108 5.508 5.7 6 5.7H18C18.492 5.7 18.9 6.108 18.9 6.6C18.9 7.092 18.492 7.5 18 7.5Z"/>

</symbol>
</svg>

