<svg xmlns="http://www.w3.org/2000/svg" >
<symbol 
    id="icon-message"
  viewBox="0 0 28 28"
>
    <path d="M19.8333 2.33331H8.16665C4.94665 2.33331 2.33331 4.93498 2.33331 8.14331V16.2866C2.33331 19.495 4.94665 22.0966 8.16665 22.0966H9.91665C10.2316 22.0966 10.6516 22.3066 10.85 22.5633L12.6 24.885C13.37 25.9116 14.63 25.9116 15.4 24.885L17.15 22.5633C17.3716 22.2716 17.7216 22.0966 18.0833 22.0966H19.8333C23.0533 22.0966 25.6666 19.495 25.6666 16.2866V8.14331C25.6666 4.93498 23.0533 2.33331 19.8333 2.33331ZM9.33331 14C8.67998 14 8.16665 13.475 8.16665 12.8333C8.16665 12.1916 8.69165 11.6666 9.33331 11.6666C9.97498 11.6666 10.5 12.1916 10.5 12.8333C10.5 13.475 9.98665 14 9.33331 14ZM14 14C13.3466 14 12.8333 13.475 12.8333 12.8333C12.8333 12.1916 13.3583 11.6666 14 11.6666C14.6416 11.6666 15.1666 12.1916 15.1666 12.8333C15.1666 13.475 14.6533 14 14 14ZM18.6666 14C18.0133 14 17.5 13.475 17.5 12.8333C17.5 12.1916 18.025 11.6666 18.6666 11.6666C19.3083 11.6666 19.8333 12.1916 19.8333 12.8333C19.8333 13.475 19.32 14 18.6666 14Z"/>

</symbol>
</svg>

