<svg xmlns="http://www.w3.org/2000/svg" >
<symbol 
    id="icon-notif"
  viewBox="0 0 28 28"
>
   <path d="M23.555 16.4033L22.2367 14.21C21.945 13.7317 21.6883 12.81 21.6883 12.25V10.0683C21.6883 5.83333 18.2467 2.39166 14.0233 2.39166C9.78835 2.40333 6.34668 5.83333 6.34668 10.0683V12.2383C6.34668 12.7983 6.09001 13.72 5.81001 14.1983L4.49168 16.3917C3.99001 17.2433 3.87335 18.2117 4.18835 19.0517C4.50335 19.9033 5.21501 20.58 6.14835 20.8833C7.40835 21.3033 8.68001 21.6067 9.97501 21.8283C10.1033 21.8517 10.2317 21.8633 10.36 21.8867L10.8733 21.9567C11.1767 22.0033 11.48 22.0383 11.795 22.0617C13.2656 22.2003 14.7461 22.2003 16.2167 22.0617C16.485 22.0383 16.7533 22.015 17.01 21.98C17.22 21.9567 17.43 21.9333 17.64 21.8983C17.7683 21.8867 17.8967 21.8633 18.025 21.84C19.3317 21.63 20.6267 21.3033 21.8867 20.8833C22.3226 20.7376 22.7205 20.4965 23.0514 20.1777C23.3824 19.8588 23.6382 19.4701 23.8 19.04C24.1267 18.165 24.0333 17.2083 23.555 16.4033ZM14.875 11.6667C14.875 11.9018 14.7816 12.1273 14.6153 12.2936C14.449 12.4599 14.2235 12.5533 13.9883 12.5533C13.7532 12.5533 13.5277 12.4599 13.3614 12.2936C13.1951 12.1273 13.1017 11.9018 13.1017 11.6667V8.05C13.1017 7.81484 13.1951 7.58931 13.3614 7.42303C13.5277 7.25675 13.7532 7.16333 13.9883 7.16333C14.2235 7.16333 14.449 7.25675 14.6153 7.42303C14.7816 7.58931 14.875 7.81484 14.875 8.05V11.6667ZM17.3017 23.345C17.0563 24.0242 16.6078 24.6113 16.0171 25.0267C15.4264 25.4421 14.7221 25.6655 14 25.6667C13.0783 25.6667 12.1683 25.2933 11.5267 24.6283C11.1533 24.2783 10.8733 23.8117 10.71 23.3333C10.8617 23.3567 11.0133 23.3683 11.1767 23.3917C11.445 23.4267 11.725 23.4617 12.005 23.485C12.67 23.5433 13.3467 23.5783 14.0233 23.5783C14.6883 23.5783 15.3533 23.5433 16.0067 23.485C16.2517 23.4617 16.4967 23.45 16.73 23.415L17.3017 23.345Z"/>

</symbol>
</svg>

