<svg xmlns="http://www.w3.org/2000/svg" >
<symbol 
    id="icon-play"
  viewBox="0 0 24 24"
>
    <path d="M16.65 5.71899H7.35C4.4 5.71899 2 8.11899 2 11.069V16.649C2 19.599 4.4 21.999 7.35 21.999H16.65C19.6 21.999 22 19.599 22 16.649V11.069C22 8.11899 19.6 5.71899 16.65 5.71899ZM14.5 12.019C14.5 11.469 14.95 11.019 15.5 11.019C16.05 11.019 16.5 11.469 16.5 12.019C16.5 12.569 16.05 13.029 15.5 13.029C14.95 13.029 14.5 12.589 14.5 12.039V12.019ZM10.13 16.069C9.98 16.219 9.79 16.289 9.6 16.289C9.41 16.289 9.22 16.219 9.07 16.069L8.04 15.039L7.05 16.029C6.9 16.179 6.71 16.249 6.52 16.249C6.33 16.249 6.14 16.179 5.99 16.029C5.85052 15.8879 5.7723 15.6974 5.7723 15.499C5.7723 15.3006 5.85052 15.1101 5.99 14.969L6.98 13.979L6.02 13.019C5.88052 12.8779 5.8023 12.6874 5.8023 12.489C5.8023 12.2906 5.88052 12.1001 6.02 11.959C6.31 11.669 6.79 11.669 7.08 11.959L8.04 12.919L9.03 11.929C9.32 11.639 9.8 11.639 10.09 11.929C10.38 12.219 10.38 12.699 10.09 12.989L9.1 13.979L10.13 15.009C10.42 15.299 10.42 15.779 10.13 16.069ZM13.54 14.999C12.99 14.999 12.53 14.549 12.53 13.999C12.53 13.449 12.97 12.999 13.52 12.999H13.54C14.09 12.999 14.54 13.449 14.54 13.999C14.54 14.549 14.1 14.999 13.54 14.999ZM15.5 16.969C14.95 16.969 14.5 16.529 14.5 15.979V15.959C14.5 15.409 14.95 14.959 15.5 14.959C16.05 14.959 16.5 15.409 16.5 15.959C16.5 16.509 16.06 16.969 15.5 16.969ZM17.48 14.999C16.93 14.999 16.47 14.549 16.47 13.999C16.47 13.449 16.91 12.999 17.46 12.999H17.48C18.03 12.999 18.48 13.449 18.48 13.999C18.48 14.549 18.04 14.999 17.48 14.999Z" />
    <path d="M13.64 2.71L13.63 3.65C13.6222 4.07801 13.4473 4.486 13.1427 4.78682C12.8382 5.08764 12.4281 5.25746 12 5.26C11.85 5.26 11.76 5.36 11.76 5.49C11.76 5.62 11.86 5.72 11.99 5.72H10.38C10.37 5.65 10.36 5.57 10.36 5.49C10.36 4.59 11.09 3.86 11.98 3.86C12.13 3.86 12.23 3.76 12.23 3.63L12.24 2.69C12.25 2.31 12.56 2 12.94 2H12.95C13.34 2 13.64 2.32 13.64 2.71Z"/>

</symbol>
</svg>



