<svg xmlns="http://www.w3.org/2000/svg" >
<symbol 
    id="icon-profile"
  viewBox="0 0 24 24"
>
  <path d="M22.1285 12C22.1285 6.49 17.6385 2 12.1285 2C6.61854 2 2.12854 6.49 2.12854 12C2.12854 14.9 3.37854 17.51 5.35854 19.34C5.35854 19.35 5.35854 19.35 5.34854 19.36C5.44854 19.46 5.56854 19.54 5.66854 19.63C5.72854 19.68 5.77854 19.73 5.83854 19.77C6.01854 19.92 6.21854 20.06 6.40854 20.2L6.60854 20.34C6.79854 20.47 6.99854 20.59 7.20854 20.7C7.27854 20.74 7.35854 20.79 7.42854 20.83C7.62854 20.94 7.83854 21.04 8.05854 21.13C8.13854 21.17 8.21854 21.21 8.29854 21.24C8.51854 21.33 8.73854 21.41 8.95854 21.48C9.03854 21.51 9.11854 21.54 9.19854 21.56C9.43854 21.63 9.67854 21.69 9.91854 21.75C9.98854 21.77 10.0585 21.79 10.1385 21.8C10.4185 21.86 10.6985 21.9 10.9885 21.93C11.0285 21.93 11.0685 21.94 11.1085 21.95C11.4485 21.98 11.7885 22 12.1285 22C12.4685 22 12.8085 21.98 13.1385 21.95C13.1785 21.95 13.2185 21.94 13.2585 21.93C13.5485 21.9 13.8285 21.86 14.1085 21.8C14.1785 21.79 14.2485 21.76 14.3285 21.75C14.5685 21.69 14.8185 21.64 15.0485 21.56C15.1285 21.53 15.2085 21.5 15.2885 21.48C15.5085 21.4 15.7385 21.33 15.9485 21.24C16.0285 21.21 16.1085 21.17 16.1885 21.13C16.3985 21.04 16.6085 20.94 16.8185 20.83C16.8985 20.79 16.9685 20.74 17.0385 20.7C17.2385 20.58 17.4385 20.47 17.6385 20.34C17.7085 20.3 17.7685 20.25 17.8385 20.2C18.0385 20.06 18.2285 19.92 18.4085 19.77C18.4685 19.72 18.5185 19.67 18.5785 19.63C18.6885 19.54 18.7985 19.45 18.8985 19.36C18.8985 19.35 18.8985 19.35 18.8885 19.34C20.8785 17.51 22.1285 14.9 22.1285 12ZM17.0685 16.97C14.3585 15.15 9.91854 15.15 7.18854 16.97C6.74854 17.26 6.38854 17.6 6.08854 17.97C4.51335 16.3823 3.62918 14.2365 3.62854 12C3.62854 7.31 7.43854 3.5 12.1285 3.5C16.8185 3.5 20.6285 7.31 20.6285 12C20.6285 14.32 19.6885 16.43 18.1685 17.97C17.8785 17.6 17.5085 17.26 17.0685 16.97Z"/>
    <path d="M12.1285 6.92999C10.0585 6.92999 8.37854 8.60999 8.37854 10.68C8.37854 12.71 9.96854 14.36 12.0785 14.42H12.2585C13.2293 14.3881 14.1496 13.9801 14.825 13.2822C15.5005 12.5843 15.8783 11.6512 15.8785 10.68C15.8785 8.60999 14.1985 6.92999 12.1285 6.92999Z" />

</symbol>
</svg>
