
<svg xmlns="http://www.w3.org/2000/svg" >
<symbol 
    id="icon-qr_code"
  viewBox="0 0 24 24"
>
  <path d="M0 0.9375C0 0.419733 0.419733 0 0.9375 0H6.0624C6.58017 0 6.9999 0.419733 6.9999 0.9375V6.0624C6.9999 6.58017 6.58017 6.9999 6.0624 6.9999H0.9375C0.419733 6.9999 0 6.58017 0 6.0624V0.9375ZM5.0001 5.0001V2.0001H2.0001V5.0001H5.0001ZM0 17.9373C0 17.4195 0.419733 16.9998 0.9375 16.9998H6.0624C6.58017 16.9998 6.9999 17.4195 6.9999 17.9373V23.0625C6.9999 23.5803 6.58017 24 6.0624 24H0.9375C0.419733 24 0 23.5803 0 23.0625V17.9373ZM5.0001 22.0002V19.0002H2.0001V22.0002H5.0001ZM17.0001 0.9375C17.0001 0.419733 17.4198 0 17.9376 0H23.0625C23.5803 0 24 0.419733 24 0.9375V6.0624C24 6.58017 23.5803 6.9999 23.0625 6.9999H17.9376C17.4198 6.9999 17.0001 6.58017 17.0001 6.0624V0.9375ZM21.9999 5.0001V2.0001H18.9999V5.0001H21.9999ZM21.9999 9.9375C21.9999 9.41973 22.4196 9 22.9374 9H23.0625C23.5803 9 24 9.41973 24 9.9375V16.0623C24 16.5801 23.5803 16.9998 23.0625 16.9998H17.9376C17.4198 16.9998 17.0001 16.5801 17.0001 16.0623V15.9375C17.0001 15.4197 17.4198 15 17.9376 15H21.9999V9.9375ZM17.0001 19.9377C17.0001 19.4199 17.4198 19.0002 17.9376 19.0002H23.0625C23.5803 19.0002 24 19.4199 24 19.9377V23.0625C24 23.5803 23.5803 24 23.0625 24H22.9374C22.4196 24 21.9999 23.5803 21.9999 23.0625V21H18.9999V23.0625C18.9999 23.5803 18.5802 24 18.0624 24H17.9376C17.4198 24 17.0001 23.5803 17.0001 23.0625V19.9377ZM9 0.9375C9 0.419733 9.41973 0 9.9375 0H14.0625C14.5803 0 15 0.419733 15 0.9375V6.0624C15 6.58017 14.5803 6.9999 14.0625 6.9999H13.9374C13.4196 6.9999 12.9999 6.58017 12.9999 6.0624V2.0001H9.9375C9.41973 2.0001 9 1.58037 9 1.0626V0.9375ZM12.9999 9.9375C12.9999 9.41973 13.4196 9 13.9374 9H18.0624C18.5802 9 18.9999 9.41973 18.9999 9.9375V12.0627C18.9999 12.5805 18.5802 13.0002 18.0624 13.0002H17.9376C17.4198 13.0002 17.0001 12.5805 17.0001 12.0627V11.0001H15V14.0625C15 14.5803 14.5803 15 14.0625 15H11.0001V16.9998H14.0625C14.5803 16.9998 15 17.4195 15 17.9373V23.0625C15 23.5803 14.5803 24 14.0625 24H13.9374C13.4196 24 12.9999 23.5803 12.9999 23.0625V19.0002H9.9375C9.41973 19.0002 9 18.5805 9 18.0627V13.9377C9 13.4199 9.41973 13.0002 9.9375 13.0002H12.9999V9.9375ZM9.9375 21H10.0626C10.5804 21 11.0001 21.4197 11.0001 21.9375V23.0625C11.0001 23.5803 10.5804 24 10.0626 24H9.9375C9.41973 24 9 23.5803 9 23.0625V21.9375C9 21.4197 9.41973 21 9.9375 21ZM4.9374 13.0002H6.0624C6.58017 13.0002 6.9999 13.4199 6.9999 13.9377V14.0625C6.9999 14.5803 6.58017 15 6.0624 15H4.9374C4.41963 15 3.9999 14.5803 3.9999 14.0625V13.9377C3.9999 13.4199 4.41963 13.0002 4.9374 13.0002ZM9 4.9374C9 4.41963 9.41973 3.9999 9.9375 3.9999H10.0626C10.5804 3.9999 11.0001 4.41963 11.0001 4.9374V10.0626C11.0001 10.5804 10.5804 11.0001 10.0626 11.0001H2.0001V14.0625C2.0001 14.5803 1.58037 15 1.0626 15H0.9375C0.419733 15 0 14.5803 0 14.0625V9.9375C0 9.41973 0.419733 9 0.9375 9H9V4.9374Z"/>

</symbol>
</svg>



