<svg xmlns="http://www.w3.org/2000/svg" >
<symbol 
    id="icon-search"
  viewBox="0 0 21 21"
>
    <path d="M3.26792 19.25C3.26792 15.8638 6.9575 13.125 11.5 13.125M21.0833 19.25L20.125 18.375M11.5 10.5C12.7708 10.5 13.9896 10.0391 14.8882 9.21859C15.7868 8.39812 16.2917 7.28532 16.2917 6.125C16.2917 4.96468 15.7868 3.85188 14.8882 3.03141C13.9896 2.21094 12.7708 1.75 11.5 1.75C10.2292 1.75 9.01039 2.21094 8.11178 3.03141C7.21317 3.85188 6.70833 4.96468 6.70833 6.125C6.70833 7.28532 7.21317 8.39812 8.11178 9.21859C9.01039 10.0391 10.2292 10.5 11.5 10.5ZM17.4417 18.725C18.255 18.725 19.035 18.43 19.6101 17.9049C20.1852 17.3798 20.5083 16.6676 20.5083 15.925C20.5083 15.1824 20.1852 14.4702 19.6101 13.9451C19.035 13.42 18.255 13.125 17.4417 13.125C16.6283 13.125 15.8483 13.42 15.2732 13.9451C14.6981 14.4702 14.375 15.1824 14.375 15.925C14.375 16.6676 14.6981 17.3798 15.2732 17.9049C15.8483 18.43 16.6283 18.725 17.4417 18.725Z" stroke-width="1.5" stroke-linecap="round" stroke-linejoin="round" fill="none"/>

</symbol>
</svg>
